<svg width="390" height="262" viewBox="0 0 390 262" fill="none" xmlns="http://www.w3.org/2000/svg">
<g clip-path="url(#clip0_284_27470)">
<circle cx="1" cy="1" r="1" transform="rotate(-90 1 1)" fill="white" fill-opacity="0.1"/>
<circle cx="33" cy="1" r="1" transform="rotate(-90 33 1)" fill="white" fill-opacity="0.1"/>
<circle cx="65" cy="1" r="1" transform="rotate(-90 65 1)" fill="white" fill-opacity="0.1"/>
<circle cx="97" cy="1" r="1" transform="rotate(-90 97 1)" fill="white" fill-opacity="0.1"/>
<circle cx="129" cy="1" r="1" transform="rotate(-90 129 1)" fill="white" fill-opacity="0.1"/>
<circle cx="161" cy="1" r="1" transform="rotate(-90 161 1)" fill="white" fill-opacity="0.1"/>
<circle cx="193" cy="1" r="1" transform="rotate(-90 193 1)" fill="white" fill-opacity="0.1"/>
<circle cx="225" cy="1" r="1" transform="rotate(-90 225 1)" fill="white" fill-opacity="0.1"/>
<circle cx="257" cy="1" r="1" transform="rotate(-90 257 1)" fill="white" fill-opacity="0.1"/>
<circle cx="289" cy="1" r="1" transform="rotate(-90 289 1)" fill="white" fill-opacity="0.1"/>
<circle cx="321" cy="1" r="1" transform="rotate(-90 321 1)" fill="white" fill-opacity="0.1"/>
<circle cx="353" cy="1" r="1" transform="rotate(-90 353 1)" fill="white" fill-opacity="0.1"/>
<circle cx="385" cy="1" r="1" transform="rotate(-90 385 1)" fill="white" fill-opacity="0.1"/>
<circle cx="1" cy="27" r="1" transform="rotate(-90 1 27)" fill="white" fill-opacity="0.1"/>
<circle cx="33" cy="27" r="1" transform="rotate(-90 33 27)" fill="white" fill-opacity="0.1"/>
<circle cx="65" cy="27" r="1" transform="rotate(-90 65 27)" fill="white" fill-opacity="0.1"/>
<circle cx="97" cy="27" r="1" transform="rotate(-90 97 27)" fill="white" fill-opacity="0.1"/>
<circle cx="129" cy="27" r="1" transform="rotate(-90 129 27)" fill="white" fill-opacity="0.1"/>
<circle cx="161" cy="27" r="1" transform="rotate(-90 161 27)" fill="white" fill-opacity="0.1"/>
<circle cx="193" cy="27" r="1" transform="rotate(-90 193 27)" fill="white" fill-opacity="0.1"/>
<circle cx="225" cy="27" r="1" transform="rotate(-90 225 27)" fill="white" fill-opacity="0.1"/>
<circle cx="257" cy="27" r="1" transform="rotate(-90 257 27)" fill="white" fill-opacity="0.1"/>
<circle cx="289" cy="27" r="1" transform="rotate(-90 289 27)" fill="white" fill-opacity="0.1"/>
<circle cx="321" cy="27" r="1" transform="rotate(-90 321 27)" fill="white" fill-opacity="0.1"/>
<circle cx="353" cy="27" r="1" transform="rotate(-90 353 27)" fill="white" fill-opacity="0.1"/>
<circle cx="385" cy="27" r="1" transform="rotate(-90 385 27)" fill="white" fill-opacity="0.1"/>
<circle cx="1" cy="53" r="1" transform="rotate(-90 1 53)" fill="white" fill-opacity="0.1"/>
<circle cx="33" cy="53" r="1" transform="rotate(-90 33 53)" fill="white" fill-opacity="0.1"/>
<circle cx="65" cy="53" r="1" transform="rotate(-90 65 53)" fill="white" fill-opacity="0.1"/>
<circle cx="97" cy="53" r="1" transform="rotate(-90 97 53)" fill="white" fill-opacity="0.1"/>
<circle cx="129" cy="53" r="1" transform="rotate(-90 129 53)" fill="white" fill-opacity="0.1"/>
<circle cx="161" cy="53" r="1" transform="rotate(-90 161 53)" fill="white" fill-opacity="0.1"/>
<circle cx="193" cy="53" r="1" transform="rotate(-90 193 53)" fill="white" fill-opacity="0.1"/>
<circle cx="225" cy="53" r="1" transform="rotate(-90 225 53)" fill="white" fill-opacity="0.1"/>
<circle cx="257" cy="53" r="1" transform="rotate(-90 257 53)" fill="white" fill-opacity="0.1"/>
<circle cx="289" cy="53" r="1" transform="rotate(-90 289 53)" fill="white" fill-opacity="0.1"/>
<circle cx="321" cy="53" r="1" transform="rotate(-90 321 53)" fill="white" fill-opacity="0.1"/>
<circle cx="353" cy="53" r="1" transform="rotate(-90 353 53)" fill="white" fill-opacity="0.1"/>
<circle cx="385" cy="53" r="1" transform="rotate(-90 385 53)" fill="white" fill-opacity="0.1"/>
<circle cx="1" cy="79" r="1" transform="rotate(-90 1 79)" fill="white" fill-opacity="0.1"/>
<circle cx="33" cy="79" r="1" transform="rotate(-90 33 79)" fill="white" fill-opacity="0.1"/>
<circle cx="65" cy="79" r="1" transform="rotate(-90 65 79)" fill="white" fill-opacity="0.1"/>
<circle cx="97" cy="79" r="1" transform="rotate(-90 97 79)" fill="white" fill-opacity="0.1"/>
<circle cx="129" cy="79" r="1" transform="rotate(-90 129 79)" fill="white" fill-opacity="0.1"/>
<circle cx="161" cy="79" r="1" transform="rotate(-90 161 79)" fill="white" fill-opacity="0.1"/>
<circle cx="193" cy="79" r="1" transform="rotate(-90 193 79)" fill="white" fill-opacity="0.1"/>
<circle cx="225" cy="79" r="1" transform="rotate(-90 225 79)" fill="white" fill-opacity="0.1"/>
<circle cx="257" cy="79" r="1" transform="rotate(-90 257 79)" fill="white" fill-opacity="0.1"/>
<circle cx="289" cy="79" r="1" transform="rotate(-90 289 79)" fill="white" fill-opacity="0.1"/>
<circle cx="321" cy="79" r="1" transform="rotate(-90 321 79)" fill="white" fill-opacity="0.1"/>
<circle cx="353" cy="79" r="1" transform="rotate(-90 353 79)" fill="white" fill-opacity="0.1"/>
<circle cx="385" cy="79" r="1" transform="rotate(-90 385 79)" fill="white" fill-opacity="0.1"/>
<circle cx="1" cy="105" r="1" transform="rotate(-90 1 105)" fill="white" fill-opacity="0.1"/>
<circle cx="33" cy="105" r="1" transform="rotate(-90 33 105)" fill="white" fill-opacity="0.1"/>
<circle cx="65" cy="105" r="1" transform="rotate(-90 65 105)" fill="white" fill-opacity="0.1"/>
<circle cx="97" cy="105" r="1" transform="rotate(-90 97 105)" fill="white" fill-opacity="0.1"/>
<circle cx="129" cy="105" r="1" transform="rotate(-90 129 105)" fill="white" fill-opacity="0.1"/>
<circle cx="161" cy="105" r="1" transform="rotate(-90 161 105)" fill="white" fill-opacity="0.1"/>
<circle cx="193" cy="105" r="1" transform="rotate(-90 193 105)" fill="white" fill-opacity="0.1"/>
<circle cx="225" cy="105" r="1" transform="rotate(-90 225 105)" fill="white" fill-opacity="0.1"/>
<circle cx="257" cy="105" r="1" transform="rotate(-90 257 105)" fill="white" fill-opacity="0.1"/>
<circle cx="289" cy="105" r="1" transform="rotate(-90 289 105)" fill="white" fill-opacity="0.1"/>
<circle cx="321" cy="105" r="1" transform="rotate(-90 321 105)" fill="white" fill-opacity="0.1"/>
<circle cx="353" cy="105" r="1" transform="rotate(-90 353 105)" fill="white" fill-opacity="0.1"/>
<circle cx="385" cy="105" r="1" transform="rotate(-90 385 105)" fill="white" fill-opacity="0.1"/>
<circle cx="1" cy="131" r="1" transform="rotate(-90 1 131)" fill="white" fill-opacity="0.1"/>
<circle cx="33" cy="131" r="1" transform="rotate(-90 33 131)" fill="white" fill-opacity="0.1"/>
<circle cx="65" cy="131" r="1" transform="rotate(-90 65 131)" fill="white" fill-opacity="0.1"/>
<circle cx="97" cy="131" r="1" transform="rotate(-90 97 131)" fill="white" fill-opacity="0.1"/>
<circle cx="129" cy="131" r="1" transform="rotate(-90 129 131)" fill="white" fill-opacity="0.1"/>
<circle cx="161" cy="131" r="1" transform="rotate(-90 161 131)" fill="white" fill-opacity="0.1"/>
<circle cx="193" cy="131" r="1" transform="rotate(-90 193 131)" fill="white" fill-opacity="0.1"/>
<circle cx="225" cy="131" r="1" transform="rotate(-90 225 131)" fill="white" fill-opacity="0.1"/>
<circle cx="257" cy="131" r="1" transform="rotate(-90 257 131)" fill="white" fill-opacity="0.1"/>
<circle cx="289" cy="131" r="1" transform="rotate(-90 289 131)" fill="white" fill-opacity="0.1"/>
<circle cx="321" cy="131" r="1" transform="rotate(-90 321 131)" fill="white" fill-opacity="0.1"/>
<circle cx="353" cy="131" r="1" transform="rotate(-90 353 131)" fill="white" fill-opacity="0.1"/>
<circle cx="385" cy="131" r="1" transform="rotate(-90 385 131)" fill="white" fill-opacity="0.1"/>
<circle cx="1" cy="157" r="1" transform="rotate(-90 1 157)" fill="white" fill-opacity="0.1"/>
<circle cx="33" cy="157" r="1" transform="rotate(-90 33 157)" fill="white" fill-opacity="0.1"/>
<circle cx="65" cy="157" r="1" transform="rotate(-90 65 157)" fill="white" fill-opacity="0.1"/>
<circle cx="97" cy="157" r="1" transform="rotate(-90 97 157)" fill="white" fill-opacity="0.1"/>
<circle cx="129" cy="157" r="1" transform="rotate(-90 129 157)" fill="white" fill-opacity="0.1"/>
<circle cx="161" cy="157" r="1" transform="rotate(-90 161 157)" fill="white" fill-opacity="0.1"/>
<circle cx="193" cy="157" r="1" transform="rotate(-90 193 157)" fill="white" fill-opacity="0.1"/>
<circle cx="225" cy="157" r="1" transform="rotate(-90 225 157)" fill="white" fill-opacity="0.1"/>
<circle cx="257" cy="157" r="1" transform="rotate(-90 257 157)" fill="white" fill-opacity="0.1"/>
<circle cx="289" cy="157" r="1" transform="rotate(-90 289 157)" fill="white" fill-opacity="0.1"/>
<circle cx="321" cy="157" r="1" transform="rotate(-90 321 157)" fill="white" fill-opacity="0.1"/>
<circle cx="353" cy="157" r="1" transform="rotate(-90 353 157)" fill="white" fill-opacity="0.1"/>
<circle cx="385" cy="157" r="1" transform="rotate(-90 385 157)" fill="white" fill-opacity="0.1"/>
<circle cx="1" cy="183" r="1" transform="rotate(-90 1 183)" fill="white" fill-opacity="0.1"/>
<circle cx="33" cy="183" r="1" transform="rotate(-90 33 183)" fill="white" fill-opacity="0.1"/>
<circle cx="65" cy="183" r="1" transform="rotate(-90 65 183)" fill="white" fill-opacity="0.1"/>
<circle cx="97" cy="183" r="1" transform="rotate(-90 97 183)" fill="white" fill-opacity="0.1"/>
<circle cx="129" cy="183" r="1" transform="rotate(-90 129 183)" fill="white" fill-opacity="0.1"/>
<circle cx="161" cy="183" r="1" transform="rotate(-90 161 183)" fill="white" fill-opacity="0.1"/>
<circle cx="193" cy="183" r="1" transform="rotate(-90 193 183)" fill="white" fill-opacity="0.1"/>
<circle cx="225" cy="183" r="1" transform="rotate(-90 225 183)" fill="white" fill-opacity="0.1"/>
<circle cx="257" cy="183" r="1" transform="rotate(-90 257 183)" fill="white" fill-opacity="0.1"/>
<circle cx="289" cy="183" r="1" transform="rotate(-90 289 183)" fill="white" fill-opacity="0.1"/>
<circle cx="321" cy="183" r="1" transform="rotate(-90 321 183)" fill="white" fill-opacity="0.1"/>
<circle cx="353" cy="183" r="1" transform="rotate(-90 353 183)" fill="white" fill-opacity="0.1"/>
<circle cx="385" cy="183" r="1" transform="rotate(-90 385 183)" fill="white" fill-opacity="0.1"/>
<circle cx="1" cy="209" r="1" transform="rotate(-90 1 209)" fill="white" fill-opacity="0.1"/>
<circle cx="33" cy="209" r="1" transform="rotate(-90 33 209)" fill="white" fill-opacity="0.1"/>
<circle cx="65" cy="209" r="1" transform="rotate(-90 65 209)" fill="white" fill-opacity="0.1"/>
<circle cx="97" cy="209" r="1" transform="rotate(-90 97 209)" fill="white" fill-opacity="0.1"/>
<circle cx="129" cy="209" r="1" transform="rotate(-90 129 209)" fill="white" fill-opacity="0.1"/>
<circle cx="161" cy="209" r="1" transform="rotate(-90 161 209)" fill="white" fill-opacity="0.1"/>
<circle cx="193" cy="209" r="1" transform="rotate(-90 193 209)" fill="white" fill-opacity="0.1"/>
<circle cx="225" cy="209" r="1" transform="rotate(-90 225 209)" fill="white" fill-opacity="0.1"/>
<circle cx="257" cy="209" r="1" transform="rotate(-90 257 209)" fill="white" fill-opacity="0.1"/>
<circle cx="289" cy="209" r="1" transform="rotate(-90 289 209)" fill="white" fill-opacity="0.1"/>
<circle cx="321" cy="209" r="1" transform="rotate(-90 321 209)" fill="white" fill-opacity="0.1"/>
<circle cx="353" cy="209" r="1" transform="rotate(-90 353 209)" fill="white" fill-opacity="0.1"/>
<circle cx="385" cy="209" r="1" transform="rotate(-90 385 209)" fill="white" fill-opacity="0.1"/>
<circle cx="1" cy="235" r="1" transform="rotate(-90 1 235)" fill="white" fill-opacity="0.1"/>
<circle cx="33" cy="235" r="1" transform="rotate(-90 33 235)" fill="white" fill-opacity="0.1"/>
<circle cx="65" cy="235" r="1" transform="rotate(-90 65 235)" fill="white" fill-opacity="0.1"/>
<circle cx="97" cy="235" r="1" transform="rotate(-90 97 235)" fill="white" fill-opacity="0.1"/>
<circle cx="129" cy="235" r="1" transform="rotate(-90 129 235)" fill="white" fill-opacity="0.1"/>
<circle cx="161" cy="235" r="1" transform="rotate(-90 161 235)" fill="white" fill-opacity="0.1"/>
<circle cx="193" cy="235" r="1" transform="rotate(-90 193 235)" fill="white" fill-opacity="0.1"/>
<circle cx="225" cy="235" r="1" transform="rotate(-90 225 235)" fill="white" fill-opacity="0.1"/>
<circle cx="257" cy="235" r="1" transform="rotate(-90 257 235)" fill="white" fill-opacity="0.1"/>
<circle cx="289" cy="235" r="1" transform="rotate(-90 289 235)" fill="white" fill-opacity="0.1"/>
<circle cx="321" cy="235" r="1" transform="rotate(-90 321 235)" fill="white" fill-opacity="0.1"/>
<circle cx="353" cy="235" r="1" transform="rotate(-90 353 235)" fill="white" fill-opacity="0.1"/>
<circle cx="385" cy="235" r="1" transform="rotate(-90 385 235)" fill="white" fill-opacity="0.1"/>
<circle cx="1" cy="261" r="1" transform="rotate(-90 1 261)" fill="white" fill-opacity="0.1"/>
<circle cx="33" cy="261" r="1" transform="rotate(-90 33 261)" fill="white" fill-opacity="0.1"/>
<circle cx="65" cy="261" r="1" transform="rotate(-90 65 261)" fill="white" fill-opacity="0.1"/>
<circle cx="97" cy="261" r="1" transform="rotate(-90 97 261)" fill="white" fill-opacity="0.1"/>
<circle cx="129" cy="261" r="1" transform="rotate(-90 129 261)" fill="white" fill-opacity="0.1"/>
<circle cx="161" cy="261" r="1" transform="rotate(-90 161 261)" fill="white" fill-opacity="0.1"/>
<circle cx="193" cy="261" r="1" transform="rotate(-90 193 261)" fill="white" fill-opacity="0.1"/>
<circle cx="225" cy="261" r="1" transform="rotate(-90 225 261)" fill="white" fill-opacity="0.1"/>
<circle cx="257" cy="261" r="1" transform="rotate(-90 257 261)" fill="white" fill-opacity="0.1"/>
<circle cx="289" cy="261" r="1" transform="rotate(-90 289 261)" fill="white" fill-opacity="0.1"/>
<circle cx="321" cy="261" r="1" transform="rotate(-90 321 261)" fill="white" fill-opacity="0.1"/>
<circle cx="353" cy="261" r="1" transform="rotate(-90 353 261)" fill="white" fill-opacity="0.1"/>
<circle cx="385" cy="261" r="1" transform="rotate(-90 385 261)" fill="white" fill-opacity="0.1"/>
</g>
<defs>
<clipPath id="clip0_284_27470">
<rect width="390" height="262" fill="white"/>
</clipPath>
</defs>
</svg>
